<?xml version="1.0" encoding="UTF-8" standalone="no"?>
<svg width="512px" height="512px" viewBox="0 0 512 512" version="1.1" xmlns="http://www.w3.org/2000/svg" xmlns:xlink="http://www.w3.org/1999/xlink" xmlns:sketch="http://www.bohemiancoding.com/sketch/ns">
    <title>fiction-logo-black-transparent</title>
    <description>Created with Sketch (http://www.bohemiancoding.com/sketch)</description>
    <defs></defs>
    <g id="Page 1" stroke="none" stroke-width="1" fill="none" fill-rule="evenodd">
        <g id="fiction-logo-black-transparent" fill="#000000">
            <path d="M363.609472,359.60276 L363.60292,233.472756 L363.609472,192.740056 C363.609472,189.426209 363.609472,185.323351 359.782874,185.323351 C358.216852,185.323351 356.821192,186.368791 353.754671,187.703535 C335.257262,196.448408 297.760501,203.082675 276,204.068939 L230,204 L229.855449,162.086974 C229.855449,146.043747 232.751607,128.955081 238.956724,117.573595 C246.66234,103.463446 259.478823,96.8817785 278.24488,96.8817785 C287.516518,96.8817785 312.04213,99.4855153 312.04213,106.90222 C312.04213,109.76896 308.700409,110.538246 306.642957,111.425884 C304.644477,112.129419 301.387937,113.746891 298.747322,115.719419 C290.635458,122.419439 286.009467,132.354404 286.009467,143.709589 C286.009467,163.895124 302.298719,180.240805 322.408017,180.240805 C342.09141,180.240805 358.754148,163.566369 358.754148,143.952868 C358.780358,143.946293 358.695177,134.649111 356.781878,128.422499 C354.455778,120.847992 352.313145,116.475555 345.642807,109.269253 C340.866112,104.120956 334.687204,100.452054 334.090936,100.083849 C330.847501,98.1310462 325.762843,95.7903131 325.087947,95.5141592 C306.243261,87.42022 283.644053,86 268.652175,86 C225.445687,86 154.568439,97.4472365 154.568439,169.122323 L154.16219,184.304212 C154.16219,198.276284 144.7464,204.068941 134.249464,204.068941 C131.379516,204.068941 126,204.068941 126,209.427641 C126,214.372111 129.754522,214 131.962679,214 L152.941029,214.000005 L152.360282,359.609335 C152.360282,373.594558 144.766057,378.703405 134.269122,378.703405 C131.399173,378.703405 126.019657,378.703405 126.019657,384.062105 C126.019657,388.940824 129.734865,389 131.962679,389 L382.971797,389 C385.193059,389 389,389 389,384.062105 C389,378.69683 383.620484,378.69683 380.750536,378.69683 C370.260152,378.69683 363.609472,373.587983 363.609472,359.60276 Z M255.5,511 C114.391239,511 0,396.608761 0,255.5 C0,114.391239 114.391239,0 255.5,0 C396.608761,0 511,114.391239 511,255.5 C511,396.608761 396.608761,511 255.5,511 Z M286,349.089371 C285.980422,362.374965 285.177718,379 259.732665,379 C230,379 230,362.801416 230,346.950554 L230,215 L251.196597,215 C280.5377,215 285.96737,217.322519 286,259.232828 Z M286,349.089371" id="Oval"></path>
        </g>
    </g>
</svg>