<?xml version="1.0" encoding="UTF-8" standalone="no"?>
<svg width="230px" height="230px" viewBox="0 0 230 230" version="1.1" xmlns="http://www.w3.org/2000/svg" xmlns:xlink="http://www.w3.org/1999/xlink" xmlns:sketch="http://www.bohemiancoding.com/sketch/ns">
    <title>logo-black</title>
    <description>Created with Sketch (http://www.bohemiancoding.com/sketch)</description>
    <defs></defs>
    <g id="Page 1" stroke="none" stroke-width="1" fill="none" fill-rule="evenodd">
        <g id="logo-black" fill="#000000">
            <path d="M221.274916,53.2101847 C222.062522,57.3954797 221.636194,68.0633675 221.276917,73.7133151 C221.231883,74.5118518 220.552359,74.1938416 220.479303,74.4757371 C220.317178,75.265245 221.276917,75.238159 221.276917,75.265245 C221.149819,76.46305 220.524338,76.699802 220.479303,77.6618581 C220.443275,79.332164 221.194854,79.6501742 221.276917,80.8118645 C221.348973,82.4460557 220.443275,82.87241 220.479303,83.9528421 C220.479303,83.7160901 221.793315,84.3159957 221.276917,84.7423501 C219.763752,85.9411582 221.231883,86.0675598 221.276917,88.6918963 C221.467064,100.63985 221.312945,113.705354 221.276917,126.451845 C221.276917,126.215093 219.999934,126.851113 220.479303,127.241353 C221.431036,127.96766 221.312945,129.402217 221.276917,131.944292 C221.231883,132.625456 221.467064,133.659742 221.276917,134.295762 C221.194854,134.576654 220.479303,135.330048 220.479303,135.094299 C220.443275,136.374365 221.276917,136.483712 221.276917,137.445768 C221.276917,137.645403 220.19008,138.281423 220.479303,139.034816 C220.597394,139.361855 221.194854,139.07996 221.276917,139.797238 C221.231883,139.633719 220.398241,140.069102 220.479303,140.586746 C220.552359,140.750265 221.312945,140.669007 221.276917,141.395315 C221.194854,142.774696 221.312945,144.209253 219.691697,145.289685 C220.19008,146.079193 221.512098,146.161455 221.276917,147.686299 C220.959673,150.555413 221.638196,155.884341 221.276917,158.753455 C221.067756,160.234158 221.467064,161.224304 219.691697,161.069813 C220.597394,161.823206 220.959673,161.977697 221.276917,163.457397 C221.947434,166.844156 221.276917,171.093655 221.276917,175.25086 C221.276917,175.25086 220.362213,175.405351 220.479303,176.041372 C220.479303,176.087518 221.194854,176.242009 221.276917,176.795768 C221.512098,178.556361 221.113792,181.861861 221.276917,184.684829 C208.116783,184.602567 200.926246,184.158155 189.884743,184.684829 C189.966806,182.016352 188.209452,180.463419 189.088129,176.795768 C189.215227,176.196866 189.884743,176.042375 189.884743,175.251864 C189.839708,174.998057 188.535704,173.455156 189.088129,172.855251 C189.92077,172.019596 189.133164,172.655616 189.088129,169.741359 C189.052101,169.114367 188.878968,167.99782 189.088129,167.3618 C189.169192,167.079905 189.884743,166.3546 189.884743,166.563263 C189.884743,165.210968 188.961031,164.929072 189.088129,163.4584 C189.215227,161.669718 189.839708,159.909126 189.884743,157.956924 C189.884743,155.842207 189.215227,154.571169 189.088129,152.464477 C189.052101,151.82946 188.878968,150.666766 189.088129,150.067864 C189.169192,149.796 189.884743,148.99646 189.884743,149.278356 C189.884743,147.962175 189.133164,147.92606 189.088129,146.890771 C189.052101,146.164464 189.559492,146.337012 189.757645,146.209608 C189.369346,145.928715 187.938244,138.401805 189.088129,137.448778 C189.133164,137.448778 189.884743,137.493921 189.884743,137.448778 C189.884743,135.052165 188.254487,132.34657 189.088129,128.805321 C189.215227,128.124157 189.839708,128.005781 189.884743,127.243359 C189.884743,125.373419 188.489668,125.736573 189.088129,123.266727 C189.169192,122.948717 189.884743,122.268556 189.884743,122.504305 C189.884743,121.833173 188.925004,121.315529 189.088129,120.080606 C189.169192,119.43656 189.884743,119.363327 189.884743,118.57382 C189.839708,117.974917 189.215227,117.17638 189.088129,116.177206 C188.878968,114.67042 190.038861,113.944113 189.884743,113.072343 C189.839708,113.036229 189.133164,112.872709 189.088129,112.273807 C188.961031,111.520414 189.052101,110.639616 189.088129,109.967481 C189.169192,108.406522 189.839708,106.736216 189.884743,105.192312 C189.884743,103.912245 189.215227,103.875127 189.088129,102.876957 C189.133164,103.113709 190.329085,102.441574 189.884743,102.07842 C189.32331,101.634008 188.852948,100.807382 189.088129,99.6818069 C189.477429,97.8570103 189.369346,98.4930307 189.088129,95.787436 C188.852948,93.3547082 190.156952,93.8813812 189.884743,91.8017751 C189.839708,91.7656604 189.133164,91.6392589 189.088129,91.0122672 C189.052101,90.4123615 189.992826,90.258874 189.884743,89.4503054 C189.839708,89.378076 189.133164,89.2145566 189.088129,88.6969122 C188.489668,84.3210117 189.523464,76.9395637 189.088129,71.364855 C187.784125,72.2456529 187.938244,73.9621055 187.502908,75.2692578 C186.904448,77.0669684 185.989743,79.33718 185.157102,81.5702736 C185.030004,81.8882838 185.347248,83.0048307 185.157102,83.1593214 C183.806062,84.2758683 183.716993,87.4991072 182.774267,90.258874 C182.692204,90.4946228 182.049709,90.258874 182.013681,91.0122672 C181.940625,92.5190537 180.464488,95.9419268 179.667875,98.0937623 C179.549784,98.3756578 179.866027,99.5283194 179.667875,99.6828101 C178.317835,100.772271 178.280807,103.877134 177.294047,106.782363 C177.203977,107.054226 176.570489,106.782363 176.488426,107.571871 C176.488426,107.571871 176.099126,111.9568 175.690812,112.27481 C174.305745,113.427472 174.305745,116.49622 173.355013,119.365334 C173.27295,119.610111 172.630455,119.365334 172.594428,120.082612 C172.476337,121.908412 171.045235,125.058419 170.211593,127.246369 C170.129529,127.501178 170.446774,128.599668 170.211593,128.808331 C170.175565,128.88056 169.460014,128.727072 169.460014,128.808331 C169.061707,129.924877 169.179798,132.267318 168.654393,133.547385 C168.500275,133.90151 167.901814,133.465123 167.865786,134.300778 C167.79273,135.654077 167.557549,135.807564 166.316593,135.898854 C166.398656,138.286439 166.361628,140.121267 165.51998,142.190842 C165.356854,142.544967 164.731372,142.944235 164.731372,142.989378 C164.088878,145.376963 163.934759,147.800662 163.173172,150.070873 C163.064088,150.351766 162.421594,150.070873 162.385566,150.86941 C162.31251,152.349111 161.669014,154.337427 160.836373,156.361857 C160.673247,156.678864 160.038759,156.333768 160.038759,157.169423 C160.002731,157.686064 160.27394,159.075478 160.038759,159.557007 C159.876634,159.747613 158.608657,159.275112 158.445532,159.557007 C158.055231,159.956276 158.680713,161.228316 157.692952,161.073826 C158.969936,163.215629 157.538833,165.086572 156.896339,167.36481 C156.297878,169.507616 155.980634,171.586219 155.311118,173.647768 C155.229055,173.929664 154.550532,173.692911 154.522511,174.446305 C154.432441,176.281133 154.395413,176.762663 153.752918,178.395851 C153.200493,179.675917 152.131669,183.089762 150.628512,184.687838 C146.842596,184.007677 140.140435,186.285915 138.818417,183.089762 C138.065838,183.535177 138.192935,184.369828 137.269224,184.687838 C136.589701,184.933619 130.911328,185.124224 129.398163,184.687838 C127.73188,184.161165 127.369601,183.58032 127.016328,182.336368 C125.631262,183.97056 126.418868,183.407772 123.12233,183.089762 C119.988917,174.809458 118.077445,166.120858 115.251268,157.958931 C114.979059,156.932671 114.907003,154.935326 114.49969,153.97327 C114.336564,153.629177 113.03256,153.501772 112.914469,153.183762 C112.362043,152.021068 112.633252,148.281188 111.356269,146.891775 C110.523628,146.057123 109.736021,142.152721 109.02047,139.801251 C108.621163,138.639561 108.060731,136.687359 107.435249,135.098311 C107.227089,134.626814 106.673663,134.427179 106.629629,134.299775 C105.877049,132.029563 105.877049,129.688125 105.044408,127.245366 C105.00738,126.973502 104.336863,127.245366 104.291829,126.455858 C104.246794,126.220109 104.373892,125.856955 104.291829,125.657321 C103.974584,124.902925 103.295061,123.423224 102.706608,121.752918 C102.028085,119.69137 101.827931,117.458276 101.148408,115.460931 C101.040325,115.143924 100.396829,115.460931 100.351794,114.671423 C100.351794,114.434671 100.442865,114.026374 100.351794,113.862855 C100.079585,113.109461 99.2829714,111.629761 98.7665737,109.968484 C98.0870504,107.617014 97.9329317,105.06591 97.2173807,102.87796 C95.6691885,97.9392716 92.1374687,91.6382557 91.7291543,84.747366 C89.5464734,83.2044648 89.465411,80.1357166 88.5857336,77.6658709 C87.6800361,75.1599104 86.3760319,72.6449213 86.2129063,69.7758072 C84.7818042,70.3747097 85.4603268,74.2791125 85.4152921,76.866331 C85.0540139,110.840253 85.7325364,149.31748 85.4152921,184.688841 C83.7500097,183.69067 80.3253724,185.959879 78.3508518,184.688841 C78.0256014,184.489207 78.5409983,182.73664 77.5902661,183.090765 C76.7936527,183.654556 76.7936527,184.934622 75.2084319,184.688841 C73.5781765,185.08811 73.7322952,183.581323 73.650232,182.337372 C72.9336801,182.891131 72.4633179,183.735814 72.0650112,184.688841 C71.3944948,184.207312 70.6699369,183.735814 70.5158182,184.688841 C69.5560791,184.334716 68.9215905,183.689667 68.9576182,182.337372 C68.015893,182.491862 68.2881026,183.735814 68.1700117,184.688841 C65.0636195,183.37266 65.7431428,183.37266 62.6907922,184.688841 L54.8197308,184.688841 C54.6566052,182.891131 54.0591451,181.111477 54.0591451,179.187365 C53.9780827,178.306567 54.7296615,178.669721 54.8197308,178.396854 C54.8197308,178.234338 53.470692,176.526914 54.0591451,176.045384 C55.0649197,175.174618 54.2302769,174.693089 54.0591451,172.059723 C53.6608384,167.838314 55.1369751,164.48767 54.8197308,159.55801 C54.8197308,159.430606 53.9050264,159.430606 54.0591451,158.758471 C54.0591451,158.522722 54.8557586,158.677212 54.8197308,157.959934 C54.7296615,157.170426 54.0591451,157.361031 54.0591451,157.170426 C53.9050264,156.490265 54.8197308,156.335775 54.8197308,156.362861 C54.7016399,155.582381 54.0591451,155.136966 54.0591451,153.975276 C53.9780827,152.704239 54.8197308,152.668124 54.8197308,151.677979 C54.8197308,151.033933 54.0591451,150.352769 54.0591451,149.281365 C54.0591451,149.318483 54.9378218,149.127878 54.8197308,148.482829 C54.7746962,148.446714 54.1041798,148.283195 54.0591451,147.693321 C53.823964,145.932728 53.7419008,143.190016 54.0591451,140.593768 C54.0591451,140.593768 54.8197308,140.440281 54.8197308,139.80426 C54.8197308,139.205358 54.0591451,139.086982 54.0591451,139.041838 C54.0591451,138.405818 54.901794,137.806916 54.8197308,136.690369 C54.8197308,136.972264 54.1041798,136.13661 54.0591451,135.900861 C53.7869355,134.947833 53.9510619,131.669419 54.0591451,129.608874 C54.0591451,129.046086 54.9828565,128.773219 54.8197308,128.010797 C54.7296615,127.76602 54.0231174,128.010797 54.0591451,127.248375 C54.0591451,126.494982 53.9050264,125.578069 54.0591451,124.869819 C54.1502152,124.22477 54.8197308,124.07028 54.8197308,123.271743 C54.7746962,122.590579 54.0591451,121.519176 54.0591451,120.084619 C54.0231174,119.521831 54.8557586,119.36734 54.8197308,118.577832 C54.8197308,118.686176 54.0591451,118.295937 54.0591451,117.769264 C53.9770819,116.933609 53.7869355,115.462937 54.0591451,114.67343 C54.6205775,112.748314 53.8689987,113.429478 54.0591451,109.97049 C54.1041798,108.372414 54.8197308,107.773511 54.8197308,106.783366 C54.8197308,105.512328 54.0591451,105.467185 54.0591451,104.395781 C53.9780827,103.115715 54.901794,103.042483 54.8197308,102.080426 C54.7296615,101.010026 54.0591451,99.8473328 54.0591451,97.2962289 C54.0231174,96.7876132 53.6608384,93.6737216 54.0591451,93.3918261 C55.0649197,92.5561716 53.9050264,93.0467299 54.0591451,91.8027783 C54.1041798,91.2861372 54.8197308,91.0132704 54.8197308,91.0132704 C54.9007933,89.3329326 54.0591451,88.8614348 54.0591451,87.1088676 C54.0591451,87.1901257 55.4992541,85.429533 54.8197308,84.7483692 C53.9510619,83.8404852 54.8197308,84.4755024 54.8197308,83.1593214 C54.8197308,82.523301 54.0591451,82.3688103 54.0591451,81.5702736 C53.9780827,80.970368 54.9828565,80.7707338 54.8197308,80.0083119 C54.7746962,79.8177064 54.0591451,79.9812259 54.0591451,79.2188039 C53.9770819,78.6199015 53.823964,77.5033546 54.0591451,76.8673342 C54.1041798,76.5954706 54.8197308,75.7959308 54.8197308,76.0778263 C54.8197308,75.3966625 54.0231174,74.2801156 54.0591451,72.9639347 C54.0591451,71.6116389 54.901794,70.4940889 54.8197308,68.9782738 C54.8197308,69.1056785 54.0591451,68.6612667 54.0591451,68.1887658 C53.9780827,67.3902292 54.7296615,64.993616 54.8197308,65.0748742 C53.6608384,64.1308755 54.0591451,61.5787684 54.0591451,58.782887 C54.0591451,58.5922815 53.9050264,57.3122152 54.0591451,57.1848105 C54.9378218,56.4314173 54.0591451,56.8306856 54.0591451,55.5957627 C53.9050264,52.3725237 53.1164191,45.6812682 54.0591451,41.4598584 C54.186243,40.8148094 54.7746962,40.7064652 54.8197308,39.8708107 C54.8197308,39.4354276 53.1164191,35.0866131 54.0591451,34.3693346 C55.0649197,33.4985685 54.0591451,34.1335857 54.0591451,33.5798266 C53.9510619,31.8914634 54.8197308,31.5012237 54.8197308,30.4298203 C54.8197308,30.5843111 54.0591451,30.0666667 54.0591451,29.6764271 C53.9510619,27.9599746 54.7016399,27.0791766 54.8197308,25.7268809 C54.8197308,25.5362754 54.9378218,24.2562091 54.8197308,24.1378331 C54.7746962,24.0926897 54.0591451,24.1649191 54.0591451,24.1378331 C54.0591451,22.4946132 54.7746962,22.0231155 54.8197308,20.9878268 C54.8197308,19.5893844 54.0591451,19.3175208 54.0591451,17.8829638 C54.0591451,16.4022602 54.8197308,16.1665113 54.8197308,14.6868109 C54.7746962,13.3074291 54.2302769,12.9442755 54.0591451,11.5458332 C54.0591451,11.8277287 55.2550661,11.1014215 54.8197308,10.7563253 C52.8732319,9.19536669 55.4181917,7.12478927 54.8197308,3.65677273 C55.5002549,3.18427178 56.2057982,2.71277402 56.3689238,3.65677273 C58.5526055,3.26653309 60.6171954,2.5853693 64.2309783,3.65677273 C66.1054218,4.21956049 65.471934,3.65677273 68.958619,3.65677273 C69.6381423,3.65677273 70.5888744,3.54742538 71.3134324,3.65677273 C73.0978065,4.06506973 73.1798697,4.25567521 76.7936527,3.65677273 C82.037691,2.78600665 89.5464734,3.50328516 96.4207672,2.86726477 C96.5838929,3.78417745 97.2173807,3.33976572 97.2173807,2.86726477 C98.9647263,4.85558088 99.5181525,7.47891419 100.350794,9.95778861 C101.61877,13.6976688 103.013844,17.7565623 104.290828,21.7873666 C105.042407,24.2110657 105.875048,26.5264207 106.627627,28.8688617 C107.188059,30.5391677 107.867582,32.1823875 108.229861,33.5808298 C108.573126,35.1698776 109.090524,36.5592912 109.769047,38.2747406 C109.896144,38.6017794 109.533865,39.7002689 109.769047,39.872817 C110.412542,40.3814327 110.648724,41.9795092 111.354267,43.8133345 C111.481365,44.1213129 112.078825,43.7671879 112.12386,44.6118712 C112.196916,45.8377654 112.595223,46.0012848 112.912467,46.9543122 C114.651807,52.0103733 115.974826,56.9229788 117.641109,61.8977818 C124.153124,81.4087606 130.982383,101.290918 137.268223,120.965417 C138.86145,119.884985 138.301019,117.615776 138.817416,116.181219 C138.979541,115.818066 140.292552,114.910182 140.374616,114.674433 C140.609797,113.912011 140.139434,112.958983 140.374616,112.27782 C140.845979,111.133184 141.444439,109.526078 141.959836,108.373417 C142.277081,107.728368 143.390938,107.228781 143.545057,106.784369 C144.061455,105.385927 144.658915,101.609932 145.103257,99.6848165 C145.130278,99.494211 146.053989,99.6848165 145.891864,98.9043372 C145.855837,98.7408178 145.021194,98.9043372 145.103257,98.0957687 C145.212341,97.2962289 146.17208,95.5898083 146.688478,94.1642799 C146.770541,93.8823844 146.479317,92.7658376 146.688478,92.6023182 C147.404029,91.9582723 147.956454,92.9203284 148.237671,91.8037815 C148.590943,90.4143679 147.91142,89.2165629 149.831898,89.4523118 C150.302261,88.7350333 149.188403,86.0745821 149.831898,85.5027656 C150.863693,84.677143 151.571238,85.7575751 150.628512,84.7493724 C150.347295,84.4775088 150.628512,83.677969 149.831898,83.9598644 C149.58671,82.1260391 152.085634,83.0790665 152.167697,81.57228 C153.046374,77.9858874 152.766158,73.2468333 154.522511,70.5773534 C154.241294,68.9792769 155.465237,68.8709328 156.107731,68.189769 C156.624129,67.6721246 156.896339,66.9187314 157.692952,66.5916925 C157.331674,64.96653 158.210351,64.558233 158.445532,63.4868296 C157.140527,63.7677219 156.978402,62.8508092 156.896339,61.8977818 C159.169089,62.8056658 158.652691,60.2545619 159.251152,59.5011687 C160.27394,58.2752745 160.518128,58.3023605 161.586951,57.1858137 C160.191877,56.2779297 161.904195,55.7241706 161.586951,54.7982293 C161.306735,53.9625747 159.639451,54.0899794 160.037758,52.5009316 C164.131911,53.5261885 160.672246,44.2477144 163.932757,46.953309 C163.298269,43.7661847 163.850694,44.2477144 163.932757,40.7064652 C164.729371,40.2249356 164.602273,39.4354276 165.517978,39.072274 C165.354852,39.1445035 166.549773,40.1888209 166.314592,39.072274 C166.161474,38.1553613 166.46871,37.6738317 167.067171,37.5103123 C167.980875,36.3666794 167.944847,35.6032543 166.314592,35.1678712 C166.07841,33.3430746 168.578335,34.2870733 168.651391,32.7712581 C168.732454,28.7133678 168.777488,24.8912263 171.006205,22.5758714 C171.168329,22.4223838 170.888114,21.9047394 171.006205,21.7863634 C171.476567,21.268719 173.188885,21.74122 172.591425,20.1882869 C172.51937,20.0709141 171.404511,20.1521722 171.793811,19.398779 C171.956937,19.0807688 173.224913,18.9082207 173.352011,18.6363571 C173.551164,18.2370887 173.11683,17.4014342 173.352011,17.0473093 C173.905437,16.3300307 174.619987,16.5296649 174.937232,15.4943762 C175.923992,12.0624744 174.538925,8.72186255 176.486425,4.45430619 C177.99959,3.38290275 178.38889,4.98097922 180.462487,3.65576955 C180.417452,3.70191614 181.658408,2.86626159 181.215066,2.86626159 C182.447015,2.74788555 182.283889,3.57451142 182.772265,3.65576955 C183.842089,3.81928898 184.158333,2.86626159 184.357486,2.86626159 C186.068804,3.02978102 186.901445,3.70091295 188.287513,3.65576955 C189.638553,3.65576955 190.869501,2.86626159 192.228548,2.86626159 C193.577586,2.90237631 195.288904,3.42002066 196.91916,3.65576955 C196.593909,3.65576955 197.390523,2.86626159 197.707767,2.86626159 C198.350262,2.86626159 199.85442,3.86543557 200.089601,4.45530937 C201.32155,2.43087854 207.51632,2.03161022 208.712241,4.45530937 C211.538418,2.82111818 217.217791,4.06506973 221.274916,3.65677273 C220.993699,5.33610733 221.636194,8.64060443 221.274916,10.7563253 C221.038734,12.2179683 221.510097,13.3074291 219.689695,13.0987663 C220.233113,13.6976688 222.987234,15.6047267 219.689695,15.4953794 C219.925877,16.3310339 221.229881,16.0130237 221.274916,17.0483124 C221.872376,19.7539071 220.396239,20.3889243 219.689695,21.7873666 C220.03396,23.0212863 222.180613,22.4675272 221.274916,24.9373729 C221.229881,26.2084105 221.310944,27.516566 221.274916,28.8688617 C221.274916,28.6331129 219.997932,29.2330185 220.477302,29.6774302 C222.496857,31.2203314 219.598625,30.3856801 220.477302,32.7732645 C220.233113,32.1823875 223.140352,36.7589254 219.689695,35.9232709 C220.595392,36.6766641 220.993699,36.8401835 221.274916,38.2747406 C221.636194,40.3814327 221.636194,46.0745174 221.274916,48.5162739 C221.065755,50.0591751 221.465062,51.0673778 219.689695,50.8948297 C220.595392,51.6662803 220.993699,51.820771 221.274916,53.2101847 Z M212.652276,198.083391 C212.498157,200.29943 217.770217,197.121334 216.548276,200.45693 C218.133497,200.45693 217.536037,198.267977 219.691697,198.867883 C219.364445,202.091122 216.630339,204.523849 214.991077,206.747914 C213.288766,209.018126 211.901698,212.331652 208.714243,213.04893 C210.624714,214.873727 207.518322,214.519602 207.925636,216.943301 C204.13972,219.893673 201.757886,224.279606 198.895682,228.21912 C195.245871,227.90111 190.953566,227.819852 187.293747,228.21912 C186.306987,228.301381 185.429312,228.583277 184.676732,228.782911 L182.449016,228.782911 C182.213835,228.60936 181.968647,228.454869 181.769493,228.21912 C181.533311,227.819852 181.099978,228.419757 180.981887,228.782911 L180.184272,228.782911 C179.550785,228.53713 179.070415,228.264263 177.874494,228.21912 C175.690812,228.101747 174.704052,228.265267 174.151627,228.782911 L173.355013,228.782911 C173.145852,228.53713 173.073797,228.136859 173.145852,228.21912 C172.159092,228.055601 171.479569,228.301381 171.009207,228.782911 L170.175565,228.782911 C170.012439,228.53713 169.931377,228.136859 170.012439,228.21912 C169.016672,228.055601 168.347157,228.301381 167.866787,228.782911 L167.042152,228.782911 C166.916055,228.53713 166.788957,228.136859 166.880027,228.21912 C164.732373,227.819852 164.089878,228.419757 163.102118,228.782911 L162.106351,228.782911 C161.98826,228.53713 161.743071,228.136859 161.353771,228.21912 C161.353771,228.21912 161.353771,228.53713 161.3908,228.782911 L158.844839,228.782911 C158.211351,228.53713 157.648918,228.21912 157.458772,228.21912 C156.89834,228.137862 156.816277,228.53713 156.780249,228.782911 L155.955614,228.782911 C155.666392,228.53713 155.466237,228.136859 155.103958,228.21912 C152.650069,228.418754 153.048375,229.299552 151.979552,228.21912 C151.463155,227.747622 150.349297,228.373611 149.8339,228.782911 L148.918195,228.782911 C148.637979,228.582274 148.428818,228.264263 148.039518,228.21912 C147.913421,228.136859 147.804337,228.136859 147.641211,228.136859 C147.722274,226.829706 146.772542,224.232456 146.690479,224.832362 C146.844598,223.115909 147.723275,223.63255 148.239672,222.443774 C148.511882,220.220712 146.482319,218.867413 148.239672,216.942298 C149.706802,215.389365 147.442058,212.448021 149.027279,209.062266 C148.356762,207.264556 146.844598,210.378447 145.893866,211.449851 C145.693712,211.640456 144.426736,212.004613 144.344673,212.240362 C143.864303,213.248564 143.864303,214.237707 142.759452,215.354253 C141.599559,216.589176 140.376617,217.668605 138.819418,217.750866 C139.416878,220.891844 136.156367,221.682355 134.879384,223.244317 C133.574379,224.832362 132.741738,226.547811 131.473761,228.136859 C131.192545,228.21912 130.956363,228.264263 130.748202,228.21912 C126.508938,227.665361 120.069979,227.983371 116.601308,228.21912 C113.304769,228.418754 113.557964,228.60936 111.918702,228.21912 C110.179363,227.774708 108.549107,228.136859 107.190061,228.21912 C106.357419,228.265267 105.559805,228.53713 104.962345,228.782911 L103.05988,228.782911 C102.498448,228.53713 101.873967,228.264263 100.913227,228.21912 C100.678046,228.136859 100.396829,228.136859 100.161648,228.21912 C99.7983683,228.21912 99.5631872,228.53713 99.4370901,228.782911 L98.4943641,228.782911 C98.0880512,228.53713 97.7708069,228.136859 97.0182273,228.21912 C96.5468643,228.21912 96.3757326,228.53713 96.3487118,228.782911 L95.6691885,228.782911 C95.4340074,228.53713 95.3519442,228.21912 95.4340074,228.21912 C94.8735758,228.265267 94.2751149,228.53713 93.8037519,228.782911 L92.1384695,228.782911 C91.6210711,228.53713 91.0506318,228.21912 89.9547879,228.21912 C89.5925089,228.21912 89.112139,228.136859 88.7138322,228.136859 C89.0310765,226.312062 87.4458558,224.877505 87.0015136,223.244317 C86.4490882,221.164711 86.8113672,217.58835 85.4162928,216.189908 C84.8188327,215.517773 84.8998952,214.873727 84.6647141,213.847467 C84.3014343,212.331652 82.4810324,207.475225 82.3189076,204.36033 C81.6483912,204.84186 80.0081281,205.313357 79.9360726,206.747914 C79.8900371,207.910608 77.7804126,208.591772 76.7936527,209.862809 C76.2312195,210.543973 76.5584716,211.615376 75.9960384,212.242368 C75.6787941,212.604519 74.719055,212.604519 74.4568531,213.049933 C73.968477,213.594664 74.2036581,214.684125 73.6512327,215.355257 C72.9346809,216.317313 70.9881819,217.75187 69.7111986,219.340917 C67.7636988,221.76562 65.318816,224.915626 63.1181213,228.10275 C62.8459117,228.056604 62.5196604,228.456875 62.447605,228.783914 L61.4518381,228.783914 C60.745294,228.538133 60.2649241,228.220123 59.305185,228.220123 C58.5986409,228.220123 58.1282787,228.538133 57.6028741,228.737768 C56.9693863,228.737768 56.3348976,228.737768 55.6924029,228.782911 C55.3751586,228.53713 55.0218865,228.264263 55.3751586,228.21912 C54.6586068,228.373611 54.2613008,228.53713 53.9530634,228.782911 L51.8424381,228.782911 C49.4145684,227.430615 45.4845419,228.301381 42.9395821,228.782911 L41.4634453,228.782911 C40.6027826,228.782911 40.9470477,228.056604 40.674838,227.938228 C40.4386562,227.938228 39.3247984,228.455872 37.8216408,228.655506 C37.3332647,228.454869 36.8168671,228.21912 35.748044,228.21912 C34.8423465,228.21912 33.6824533,228.53713 32.5595886,228.782911 L31.0204033,228.782911 C30.8202492,228.582274 30.4589709,228.264263 30.2688245,228.21912 C28.4304088,227.747622 27.207467,228.137862 26.5279437,228.782911 L25.7043094,228.782911 C25.5501907,228.53713 25.4681276,228.21912 25.5501907,228.21912 C23.602691,228.136859 21.7372545,228.100744 20.0619643,228.21912 C19.1912938,228.265267 18.7119247,228.53713 18.1594993,228.782911 L15.5695048,228.782911 C15.062114,228.582274 14.6187726,228.264263 13.7941376,228.21912 C13.268733,228.137862 13.0245449,228.53713 12.7523353,228.782911 L11.9557218,228.782911 C11.7645746,228.373611 11.3212332,227.746619 10.6507169,228.21912 L10.6507169,228.782911 L10.0892845,228.782911 C9.4547959,227.819852 10.8408633,227.430615 10.8408633,227.184835 C10.885898,226.548814 9.97119357,226.394323 10.0892845,225.631901 C10.2073754,224.233459 10.8408633,223.915449 10.8408633,222.444777 C10.8408633,221.056367 10.16134,220.819615 10.0892845,219.339914 C9.92615889,217.624465 10.0072213,215.799668 10.0892845,213.847467 C10.0892845,214.001958 11.357261,213.403055 10.8408633,213.04893 C10.16134,212.449025 9.53685909,211.132844 10.0892845,209.063269 C10.1623408,208.781374 10.8408633,208.064095 10.8408633,208.26373 C10.8408633,206.829172 10.0892845,205.004376 10.0892845,203.569819 C10.0892845,201.808223 10.7327801,201.617617 10.8408633,200.455927 C10.9219257,199.819907 9.8541034,199.620273 10.0892845,198.866879 C10.13532,198.575955 10.885898,198.830765 10.8408633,198.076368 C10.8048355,195.679755 8.37696588,188.834009 11.6745053,186.282905 C10.7317793,185.528509 10.3975219,185.320849 10.0892845,183.894317 C10.2073754,184.485194 10.8408633,183.169013 10.8408633,183.086752 C11.1671145,181.897976 10.0892845,181.29807 10.0892845,179.945774 C10.0892845,178.629593 10.6867446,178.230325 10.8408633,176.795768 C10.8048355,177.075657 9.61792152,176.395497 10.0892845,176.041372 C11.8006024,174.652961 9.89913808,170.466663 10.0892845,166.563263 C10.0892845,166.563263 10.9679612,166.51812 10.8408633,165.763724 C10.8408633,165.645347 10.0892845,165.726606 10.0892845,165.046445 C10.0072213,162.658861 9.4547959,159.67137 10.0892845,157.16541 C10.1623408,156.757113 10.885898,156.167239 10.8408633,156.357845 C10.885898,155.731856 10.0892845,155.050692 10.0892845,153.97026 C10.0892845,151.591705 10.6046814,152.981118 10.0892845,150.865397 C9.92615889,150.392896 10.0892845,149.720761 10.0892845,149.27635 C10.0892845,147.596012 10.8048355,147.196743 10.8408633,146.080197 C10.885898,145.689957 10.16134,144.618554 10.0892845,143.737756 C10.0892845,143.93739 10.9679612,143.502007 10.8408633,142.984362 C10.8408633,142.821846 10.0892845,142.821846 10.0892845,142.185826 C10.0082221,140.905759 10.9229265,140.824501 10.8408633,139.798241 C10.885898,139.880503 10.0892845,139.553464 10.0892845,139.035819 C10.0532568,138.763956 10.0532568,138.48206 10.0892845,138.246311 C10.1623408,136.685353 10.885898,136.131594 10.8408633,135.096305 C10.8408633,134.425173 10.1343192,133.271508 10.0892845,131.946299 C10.0072213,130.675261 9.64494233,128.922694 10.0892845,127.243359 C10.4875912,125.573053 10.2884379,125.853946 10.0892845,122.504305 C9.8541034,119.045317 9.53685909,112.589811 10.0892845,108.368401 C10.16134,107.724355 9.81707488,106.579719 10.0892845,105.980816 C10.6507169,104.828155 12.1899022,105.699924 10.8408633,103.584203 C10.5686537,103.193964 10.1343192,103.747723 10.0892845,102.875954 C10.0072213,101.39525 9.30067721,94.5043602 10.0892845,91.0092576 C10.2073754,90.409352 10.8048355,90.2829504 10.8408633,89.4472959 C10.8408633,89.528554 9.37373347,87.7408752 10.0892845,87.1048549 C11.1671145,85.988308 10.3244656,86.4246943 10.0892845,83.9548485 C10.0082221,83.3549428 11.0400167,83.1553087 10.8408633,82.3658007 C10.8048355,82.1210232 10.0072213,82.4029186 10.0892845,81.5672641 C10.0892845,81.0947631 11.8006024,78.3711111 10.8408633,77.6628613 C10.8048355,77.5816032 10.0892845,77.698976 10.0892845,77.6628613 C10.0082221,77.0639588 10.8408633,76.7459486 10.8408633,76.8643247 C10.6507169,75.157904 9.64494233,74.9121233 10.0892845,72.1704139 C10.0082221,72.3249047 11.4032964,71.7621169 10.8408633,71.3628486 C10.2884379,70.8913509 9.89913808,70.2192157 10.0892845,68.9752642 C10.0082221,69.129755 11.4032964,68.630168 10.8408633,68.1857562 C10.2884379,67.7042266 9.89913808,67.0230628 10.0892845,65.8704013 C10.0082221,65.9526626 11.4032964,65.4801616 10.8408633,65.0718646 C10.16134,64.5542203 9.97119357,63.6373076 10.0892845,61.0862037 C10.13532,59.4249265 10.6507169,59.1340023 10.8408633,57.9903695 C10.8048355,58.2722649 9.61792152,57.5459577 10.0892845,57.1828041 C11.6745053,55.9117665 10.3244656,54.1140559 10.0892845,51.6903568 C9.69097778,47.9504766 9.7720402,43.6016621 10.0892845,39.8698075 C10.1623408,38.2356163 10.7327801,37.8273193 10.8408633,36.7198011 C10.9939812,35.4036201 10.0892845,35.4036201 10.0892845,34.3683314 C10.0082221,32.1442664 11.0400167,32.1803812 12.435091,29.6744207 C13.268733,29.8279083 12.9885172,31.2173219 13.984284,31.2173219 C15.2972951,31.0628311 14.337556,29.1116329 14.7808975,28.0673155 C15.0170793,27.4403238 16.9185436,27.2778076 16.3661182,25.7248745 C18.3956812,26.1612607 19.1922946,25.4068643 18.7129255,23.3282614 C21.5290942,23.5369242 21.5741288,20.9858204 24.2011519,20.9858204 C23.8749006,19.0787624 25.6322539,19.2693679 24.9887584,17.0453029 C26.845188,16.7644106 27.7608932,15.0479581 28.9197856,13.8952965 C29.9876079,12.861011 31.0204033,11.8257223 32.0161701,10.7543189 C33.2030841,9.55551073 34.0087045,7.96646294 35.1495831,6.8047727 C35.4668274,6.56902382 36.498622,7.1227829 36.7438108,6.8047727 C37.2241807,6.33227175 36.5806852,3.81728261 39.0806103,4.453303 C37.8206401,7.1679263 39.2067075,6.8047727 40.6738373,8.39382049 C39.8051683,11.8257223 41.3533606,13.5692609 39.0806103,14.6858077 C39.5599795,15.4482296 41.2712974,15.8846158 39.9222585,16.2838842 C39.1246443,17.400431 40.6738373,18.5169778 40.6738373,18.6353539 C40.6288026,20.3879211 39.5149448,19.7519007 39.0806103,20.9868236 C38.6813028,22.7303621 40.6017818,22.1033704 40.6738373,23.3292646 C39.8772238,27.6419644 41.0271093,33.5336801 40.6738373,39.072274 C40.600781,40.1888209 40.0853841,41.6966105 39.9222585,43.0037628 C39.8051683,43.8845608 41.3533606,44.7202153 39.0806103,44.610868 C39.1706797,46.8359362 42.5492815,49.7863083 39.0806103,50.8938265 C39.4418886,52.137778 41.5895424,51.5749903 40.6738373,54.0077181 C41.5895424,56.5136786 39.4418886,55.9147761 39.0806103,57.1858137 C39.5960072,57.8669775 40.0863849,58.6203707 39.0806103,58.7838902 C39.3247984,59.6285734 40.6288026,59.3015345 40.6738373,60.3819666 C40.5557463,62.8879271 40.8369629,64.8401285 40.6738373,67.3912323 C40.6278018,68.2258837 39.9582862,67.9078735 39.9222585,68.189769 C39.7591329,68.9431622 40.709865,68.9431622 40.6738373,68.9792769 C40.5557463,70.1409672 39.8772238,70.4589774 39.9222585,71.3668614 C39.9222585,72.8014184 40.709865,73.8908792 40.6738373,75.2712641 C40.6278018,76.7509646 40.0043217,77.9046293 39.9222585,79.2208103 C39.7231051,81.6093979 41.9047852,82.7259448 39.9222585,84.7503756 C38.4461217,86.1488179 40.1944681,84.7503756 40.6738373,87.110874 C40.6278018,87.0296159 39.7591329,88.0548727 39.9222585,88.6999218 C40.2395028,89.979988 41.3533606,90.334113 39.9222585,91.8047847 C38.654282,93.0758223 40.6017818,92.2411709 40.6738373,95.0009376 C40.709865,96.2719752 40.7919282,97.6252741 40.6738373,98.9053404 C40.5557463,100.448242 39.9222585,101.093291 39.9222585,102.082433 C39.8772238,103.245126 40.8369629,103.562133 40.6738373,104.397788 C40.3936215,106.031979 39.7231051,105.623682 39.0806103,106.785372 C39.3247984,107.621027 40.6288026,107.303017 40.6738373,108.37442 C40.4386562,114.702522 40.0403494,116.781125 40.6738373,122.510324 C41.1181795,124.27192 39.1706797,123.626871 39.0806103,124.870823 C38.3280308,127.894427 40.1124049,128.730082 40.6738373,131.153781 C40.600781,130.880914 39.8041675,131.516935 39.9222585,131.952318 C39.8772238,131.880088 41.4354238,133.750028 40.6738373,134.303788 C40.6278018,134.385046 39.9222585,134.267673 39.9222585,134.303788 C39.8772238,134.630826 42.1409671,137.009382 39.0806103,136.691372 C39.3247984,137.527027 40.6288026,137.209016 40.6738373,138.253334 C40.6017818,141.40334 40.7559005,144.581436 40.6738373,147.695327 C40.6278018,149.129884 39.8041675,149.402751 39.9222585,150.873423 C39.9582862,151.509443 40.9910816,152.072231 40.6738373,153.188778 C40.6288026,153.297122 38.6092474,153.188778 39.0806103,153.978286 C39.5960072,154.65945 39.2787629,156.656794 39.9222585,157.174439 C40.9910816,158.036176 39.5599795,157.491446 39.9222585,158.762483 C39.9582862,158.916974 40.6017818,158.844745 40.6738373,159.562023 C40.7919282,160.759828 40.709865,162.194385 40.6738373,163.465423 C40.6738373,163.465423 39.7591329,163.547684 39.9222585,164.255934 C39.9222585,164.410425 40.709865,164.300074 40.6738373,165.05447 C40.6288026,165.498882 40.9910816,167.841323 40.6738373,168.159333 C39.8772238,168.993985 40.7919282,168.840497 40.6738373,170.546918 C40.6288026,170.756584 40.8369629,171.955392 40.6738373,172.063736 C40.6278018,172.10888 39.9222585,172.063736 39.9222585,172.063736 C39.8772238,172.898388 41.543507,173.825332 39.0806103,174.451321 C40.0403494,176.121627 42.1860018,182.859029 39.9222585,184.692854 C39.5599795,184.974749 38.9264917,184.692854 39.0806103,185.44725 C38.8084007,187.762605 42.5032461,188.352479 39.9222585,190.985844 C38.763366,192.147535 40.1944681,191.140335 40.6738373,194.180994 C40.8729906,195.36977 40.5197186,196.804327 40.6738373,198.084394 C43.1007062,198.112483 45.5916244,197.912849 47.7472844,198.084394 C47.7923191,198.084394 47.8293476,198.993281 48.5448987,198.874905 C48.6990174,198.83879 48.5809264,198.03925 49.3325052,198.084394 C51.6062562,198.192738 50.9267329,198.556895 53.2725394,198.084394 C53.2275047,198.084394 61.0985661,197.276828 61.8951795,198.084394 C62.0132705,198.193741 61.7320539,199.628298 61.8951795,199.673442 C62.2854801,199.701531 62.8829402,198.91102 63.4443726,198.874905 C64.4401394,198.756529 64.8294392,199.673442 65.0386003,199.673442 C66.1064226,199.628298 67.0581555,198.42949 68.1720133,198.874905 C68.2540764,198.91102 68.0899501,200.463953 68.1720133,200.463953 C68.958619,200.463953 68.7234379,198.91102 69.7111986,198.874905 C69.4479959,198.874905 70.1995746,199.628298 70.516819,199.673442 C71.1873353,199.673442 72.2281368,199.827932 72.8536185,199.673442 C73.8854131,199.392549 74.0935734,198.274999 75.2084319,198.084394 C76.4764084,197.794473 76.5944993,198.83879 77.5902661,198.874905 C78.8942703,198.91102 79.3376117,198.238884 80.7236791,198.084394 C81.9556278,197.912849 83.3867299,198.03925 84.6637133,198.084394 C86.2119055,198.112483 86.8093656,198.874905 87.7971263,198.874905 C90.940547,198.83879 94.9166089,197.404233 98.7655729,198.084394 C100.078584,195.769039 97.0172266,189.314535 98.7655729,187.879978 C99.8794307,186.925948 98.403294,187.515821 98.7655729,186.29093 C99.0918242,185.254639 100.160647,185.019893 100.350794,183.902343 C100.160647,183.067691 98.8106076,183.37567 98.7655729,182.341384 C99.4360893,176.403522 99.5181525,164.173673 99.5621864,165.05447 C98.285203,165.136732 97.2984431,157.491446 99.5621864,156.36587 C102.262266,156.36587 101.382588,159.643281 101.945021,161.077838 C102.027085,161.38682 102.660572,161.077838 102.705607,161.867346 C102.732628,162.06698 102.660572,162.431137 102.705607,162.666886 C103.013844,163.465423 103.222005,163.937924 103.494214,165.05447 C104.127702,167.559428 106.238328,173.17928 107.434249,176.80279 C109.770047,184.01169 112.469126,191.065096 114.498689,198.083391 C116.210007,198.273996 117.560046,197.747323 119.190302,198.083391 C120.458278,198.347229 120.022943,198.392372 120.774522,198.873902 C121.218864,199.155797 121.690227,199.627295 122.332722,199.672438 C123.881915,199.780782 126.336805,196.648834 127.015328,199.672438 C127.894004,199.463775 127.57676,198.083391 128.609555,198.083391 C130.040657,198.428487 131.47176,197.593835 133.292161,198.083391 C133.735503,198.192738 134.206866,198.873902 134.124803,198.873902 C134.723263,198.910016 135.365758,197.911846 136.479616,198.083391 C137.078077,198.11148 137.937739,199.672438 138.064837,199.672438 C139.025577,199.672438 139.368841,198.237881 140.374616,198.083391 C141.67962,197.875731 142.15899,198.837787 143.545057,198.873902 C145.058222,198.910016 145.773773,197.911846 146.688478,198.083391 C148.165615,198.273996 148.916193,199.508919 150.628512,199.672438 C152.366851,200.062678 151.732362,198.11148 152.965311,198.083391 C156.624129,198.428487 158.20935,199.155797 161.586951,198.083391 C161.035526,193.063444 163.335297,190.90258 163.933758,187.043321 C164.413127,185.962888 166.914053,183.021545 165.518979,183.093774 C170.173563,177.401693 167.303353,169.12139 173.353012,165.05447 C172.90867,162.194385 173.660248,160.58728 175.688811,160.26927 C175.923992,157.047034 174.702051,157.200522 175.688811,154.776822 C177.292045,155.930487 176.486425,158.209727 176.486425,159.562023 C176.803669,170.23894 176.332306,185.254639 176.486425,197.275825 C176.603515,198.755526 179.991124,198.11148 181.214065,198.083391 C184.274422,199.863044 187.217689,198.083391 189.88074,198.083391 C191.46596,198.083391 192.425699,198.710382 193.811767,198.873902 C193.811767,198.873902 194.691444,197.79347 195.36096,198.083391 C195.678204,198.192738 195.316926,198.837787 196.149567,198.873902 C197.42655,198.910016 197.472586,198.083391 198.50438,198.083391 C199.138869,198.083391 199.727322,198.910016 200.886215,198.873902 C203.468203,198.755526 206.249345,196.99393 208.712241,199.672438 C210.189379,199.309285 210.659741,197.911846 212.652276,198.083391 Z M212.652276,198.083391" id="Shape"></path>
        </g>
    </g>
</svg>